<svg width="50" height="50" viewBox="0 0 50 50" fill="none" xmlns="http://www.w3.org/2000/svg">
<path d="M27.9503 13.5329L28.379 13.5874L28.9508 13.6602L29.298 13.71L29.9513 13.8026L30.1466 14.1854L30.2178 14.4535L30.2834 14.7146L30.4795 14.9527L30.9248 14.9471L31.3195 14.9424L31.8058 14.9344L32.1917 14.9289L32.3159 15.1654L32.3705 15.4011L32.5998 15.9587L32.9273 16.393L33.0056 16.5512L33.0578 16.7893L33.0008 16.8778L32.9787 16.9799L33.2215 17.2172L33.6218 17.418L33.7783 17.4686L33.9562 17.5572L33.8179 17.6939L34.0544 18.0103L34.3288 18.3322L34.6231 18.405L35.02 18.8907L35.6188 19.2046L35.9818 19.6159L35.9478 19.6239L35.841 19.5819L35.7074 19.5258L35.667 19.5764L35.6742 19.7487L35.7098 19.9512L35.8949 20.126L36.0594 20.2518L36.1235 20.4899L35.9938 21.0017H35.9487L35.8618 20.9574L35.7692 20.9471L35.7194 20.9764L35.8293 21.3443L35.9391 21.6258L36.0705 21.8488L36.1803 22.1747L36.2744 22.3138L36.6595 22.6595L36.7782 22.9483L36.888 23.4852L37.1301 23.7842L37.2606 24.0144L37.4354 24.2097L37.5493 24.4763L37.7106 24.6812L37.7944 24.7326L37.9203 24.7539L38.0768 24.7548L38.2643 24.7019L38.4644 24.6521L38.6201 24.7557L38.7814 24.7399L38.798 24.8365L38.6896 24.9678L38.557 25.2977L38.7459 25.35L38.9271 25.376L39.0552 25.4289H39.1302V25.4978L39.1388 25.8109L39.1839 25.9304L39.2661 26.0363L39.8748 26.8273L39.9974 26.9855L40.1191 27.1429L40.2409 27.3011L40.9713 28.2455L41.0939 28.4028L41.2156 28.5594L41.3161 28.6891L41.5028 28.7137L41.562 28.7217L41.7305 28.7438L41.9915 28.7778L42.3301 28.8229L42.7311 28.8758L43.1781 28.9344L43.6566 28.9977L44.1501 29.0625L44.6444 29.1273L45.1221 29.1906L45.569 29.25L45.9701 29.3023L46.3094 29.3473L46.5705 29.3814L46.7389 29.4035L46.7984 29.4115L46.9748 29.4344L47.008 29.4289L47.1559 29.2367L47.3189 29.508L47.4541 29.7326L47.6392 30.041L47.8369 30.3685L48.0251 30.6816L48.1659 30.9142L48.0907 31.1554L47.9276 31.6821L47.846 31.9447L47.7639 32.2072L47.6008 32.7323L47.5192 32.994L47.4388 33.2559L47.3566 33.5176L47.2751 33.7793L47.112 34.3015L47.0298 34.5625L46.9483 34.8236L46.7852 35.3441L46.687 35.6572L46.4505 35.7402L46.0693 35.8747L45.6873 36.0091L44.925 36.278L44.543 36.4125L44.1618 36.5461L43.7806 36.6805L43.3986 36.815L43.0174 36.9486L42.6356 37.0824L42.2544 37.2168L41.8732 37.3504L41.4912 37.4841L41.11 37.6177L40.728 37.7513L40.3469 37.8849L40.0337 37.9948L39.5125 38.0684L39.0064 38.1395L38.4369 38.2202L37.7526 38.3177L37.2155 38.3937L36.4325 38.5044L35.7293 38.6032L34.4116 38.7897L33.8509 38.8688L33.5164 38.9606L33.1234 39.1623L32.5199 39.4715L31.9045 39.7855L31.5858 39.9484L31.252 40.366L31.0827 40.5771L30.7773 40.9591L30.5464 41.2471L30.2703 41.5911L30.1501 41.8965L29.9642 42.3678L29.8037 42.4865L29.5412 42.6399L29.3022 42.7492L28.9297 42.7334L28.717 42.4438L28.4915 42.1362L28.3784 42.0128L28.2772 42.0065L27.903 42.0452L27.4522 42.0927L26.9207 42.0429L26.3078 41.9844L25.7327 41.9298L25.4464 41.8886L25.0692 41.6893L24.9718 41.6497L24.873 41.6403L24.4255 41.6356L23.9818 41.6308L23.5373 41.6941L23.1118 41.6712L22.6706 41.7075L22.5156 41.7835L22.3433 41.7796L22.2357 41.8468L22.1408 41.8784L22.0285 41.8206L21.8908 41.8333L21.6883 41.7835L21.5563 41.653L21.4313 41.5382L21.3024 41.4749L21.1585 41.4354L21.0335 41.4345L20.8737 41.5042L20.7764 41.5714L20.5296 41.7969L20.5194 41.8776L20.6317 42.012L20.5977 42.0753L20.4523 42.1544L20.4072 42.3672L20.3859 42.4834L20.3646 42.7617L20.4294 42.9808L20.5156 43.0615L20.5195 43.1556L20.472 43.3439L20.3384 43.4017L20.2402 43.5804L20.1802 43.6634L20.0757 43.7583L19.6605 44.0739L19.64 43.8904L19.508 43.6183L19.4985 43.4261L19.4369 43.2331L19.3229 43.0843L19.1125 42.9292L19.0934 42.7187L18.9399 42.5107L18.7367 42.3431L18.6235 42.033L18.5381 41.6209L18.0018 41.0783L17.3311 40.5768L17.127 40.2944L16.7936 39.7186L16.6252 39.2622L16.1766 38.7362L16.1575 38.5337L16.0911 38.287L15.9876 38.0117L15.9251 37.7951L15.4751 36.8413L15.3296 36.6895L15.2046 36.4759L15.1722 36.3106L15.1326 36.2204L14.8147 36.0638L14.5182 35.662L13.6267 35.0213L13.1902 34.9572L12.8445 34.7279L12.5898 34.4281L12.3185 33.9108L11.8407 33.3509L11.4358 32.5551L11.5631 32.2649L11.5551 32.0609L11.4301 31.7168L11.2948 31.451L11.2016 31.1995L11.2751 30.838L11.3036 30.4331L11.3835 30.2179L11.4413 29.9814L11.3663 29.5053L11.2319 29.2498L11.2454 29.0797L11.0927 28.9967L10.9693 28.8116H11.0982L10.8642 28.5546L10.7779 28.4114L10.6894 28.0618L10.5763 27.7944L10.2133 27.187L10.0393 26.816L9.65015 26.3359L9.22778 25.9808L8.95971 25.8195L8.82999 25.6724L8.61092 25.6676L8.37198 25.4572L8.20515 25.4492L7.99389 25.4152L7.74552 25.0094L7.54077 24.6291L7.19116 24.1331L7.27889 24.0034L7.38094 23.7923L7.33032 23.5155L7.27498 23.3272L7.12069 22.9839L6.61369 22.1281L6.47924 22.0023L6.26326 21.8576L6.13029 21.4858L6.06942 21.152L5.72225 20.9899L5.12508 19.783L4.77873 19.3599L4.64184 19.0752L4.24162 18.6061L4.04467 18.1387L3.64135 17.7069L3.29174 16.9562L2.75154 16.2041L2.52449 16.0735L1.96769 16.0198L1.73381 15.9651L1.51864 16.1305L1.49976 15.9209L1.64836 15.6307L1.86271 15.0202L1.90535 14.4839L2.24226 12.8846L2.71526 12.9668L3.10442 13.0348L3.67309 13.1344L4.26163 13.2373L4.60571 13.2974L4.72354 13.2713L5.19963 12.8791L5.62833 12.5247L5.88533 12.0905L6.13371 11.6689L6.24764 11.582L6.62882 11.5029L7.23382 11.3771L7.83261 11.2529L7.88079 11.2103L8.01995 10.8709L8.19703 10.4399L8.23349 10.3949L8.27695 10.3506L8.70566 10.1086L8.96591 9.96142L8.59498 9.52717L8.24537 9.11669L7.85312 8.6564L7.02337 7.75961L6.69752 7.40691L7.26786 7.23926L7.88473 7.05811L8.50715 6.87549L9.25619 6.65561L9.84227 6.48324L10.7171 6.22543L11.145 6.09962L11.2225 6.06642L11.5516 5.76108L12.0467 5.84653L12.791 5.97544L13.5099 6.09881L14.2676 6.24513L14.5104 6.36378L15.2421 6.80032L15.7175 7.08353L16.2726 7.41328L16.9663 7.82539L17.4424 8.10778L18.0523 8.46927L18.5277 8.88138L19.1296 9.40254L19.7907 9.9735L20.3348 10.4164L21.0845 11.0251L21.8232 11.6237L22.5469 12.2082L23.1258 12.6756L23.8591 13.2656L23.916 13.2878L24.6571 13.3542L25.6528 13.4443L27.5565 13.6159L27.9503 13.5329ZM5.89491 21.9496L5.8744 21.9828L5.78114 21.8965L5.78667 21.7076L5.8674 21.6L5.86106 21.7471L5.89589 21.8957L5.89491 21.9496ZM6.57508 22.7564H6.51665L6.36089 22.591L6.2699 22.4693L6.17664 22.3871L5.75118 22.2217L5.6934 22.1149L5.75818 22.0082L5.80408 22.1141L5.88156 22.1766L6.23344 22.326L6.6257 22.6519L6.69292 22.6787L6.57508 22.7564Z" fill="#005F83"/>
</svg>
