<svg width="90" height="90" viewBox="0 0 90 90" fill="none" xmlns="http://www.w3.org/2000/svg">
<path d="M58.0925 47.6367C56.8675 53.6469 51.3661 58.1836 45 58.1836C38.6339 58.1836 33.3083 53.6469 32.0832 47.6367H26.8095C28.1027 56.5576 35.7267 63.457 45 63.457C54.2733 63.457 62.0731 56.5576 63.3663 47.6367H58.0925Z" fill="#005F83"/>
<path d="M68.6398 47.6367C67.3086 59.4694 57.1829 68.7305 45 68.7305C32.8171 68.7305 22.8672 59.4694 21.536 47.6367H0V50.2734C0 51.409 0.728789 52.4183 1.8051 52.7762L12.654 56.3168C13.1098 57.6095 13.5912 58.7862 14.1063 59.8727L9.10055 69.9304C8.59588 70.9448 8.79662 72.1679 9.59748 72.9687L17.0313 80.4025C17.8372 81.2085 19.0577 81.399 20.0696 80.8995L30.1273 75.8937C31.214 76.4088 32.3907 76.8902 33.6832 77.346L37.2238 88.1949C37.5817 89.2712 38.591 90 39.7266 90H50.4492C51.5848 90 52.5941 89.2712 52.952 88.1949L56.4926 77.346C57.7853 76.8902 58.962 76.4088 60.0485 75.8937L70.1061 80.8995C71.1181 81.4015 72.3412 81.2085 73.1445 80.4025L80.5783 72.9687C81.3792 72.1679 81.5799 70.9448 81.0752 69.9304L76.0695 59.8727C76.5845 58.786 77.066 57.6093 77.5218 56.3168L88.1949 52.7762C89.2712 52.4183 90 51.409 90 50.2734V47.6367H68.6398Z" fill="#005F83"/>
<path d="M37.5755 47.6367C38.6677 50.6992 41.567 52.9102 45 52.9102C48.433 52.9102 51.5081 50.6992 52.6003 47.6367H37.5755Z" fill="#005F83"/>
<path d="M45 0C39.1832 0 34.4531 4.7301 34.4531 10.5469C34.4531 16.3637 39.1832 21.0938 45 21.0938C50.8168 21.0938 55.7227 16.3637 55.7227 10.5469C55.7227 4.7301 50.8168 0 45 0Z" fill="#005F83"/>
<path d="M71.543 0C65.7262 0 60.9961 4.7301 60.9961 10.5469C60.9961 16.3637 65.7262 21.0938 71.543 21.0938C77.3597 21.0938 82.0898 16.3637 82.0898 10.5469C82.0898 4.7301 77.3597 0 71.543 0Z" fill="#005F83"/>
<path d="M18.6328 0C12.816 0 8.08594 4.7301 8.08594 10.5469C8.08594 16.3637 12.816 21.0938 18.6328 21.0938C24.4496 21.0938 29.1797 16.3637 29.1797 10.5469C29.1797 4.7301 24.4496 0 18.6328 0Z" fill="#005F83"/>
<path d="M80.5368 23.5341C77.9794 25.3111 74.8865 26.3672 71.543 26.3672C68.2133 26.3672 65.1301 25.3223 62.5787 23.5589C61.4222 24.2228 60.3107 24.9694 59.3044 25.8696C64.4321 29.7026 67.9922 35.689 68.7452 42.3633H90V39.7266C90 32.8319 86.1537 26.7026 80.5368 23.5341Z" fill="#005F83"/>
<path d="M45 26.3672C35.7173 26.3672 28.0132 33.431 26.7309 42.3633H63.4447C62.1626 33.431 54.2827 26.3672 45 26.3672Z" fill="#005F83"/>
<path d="M27.5971 23.5589C25.0457 25.3223 21.9625 26.3672 18.6328 26.3672C15.2893 26.3672 12.1964 25.3111 9.63896 23.5341C4.02205 26.7026 0 32.8319 0 39.7266V42.3633H21.4305C22.1836 35.689 25.7437 29.7026 30.8714 25.8696C29.8649 24.9694 28.7536 24.2228 27.5971 23.5589Z" fill="#005F83"/>
</svg>
