<svg width="50" height="50" viewBox="0 0 50 50" fill="none" xmlns="http://www.w3.org/2000/svg">
<g clip-path="url(#clip0_6_1247)">
<path d="M48.4375 12.5H32.8125V6.25C32.8125 5.83561 32.6479 5.43817 32.3548 5.14517C32.0619 4.85203 31.6644 4.6875 31.25 4.6875H18.75C18.3356 4.6875 17.9382 4.85205 17.6452 5.14517C17.352 5.43813 17.1875 5.83558 17.1875 6.25V12.5H1.5625C1.14811 12.5 0.750667 12.6646 0.457667 12.9577C0.164533 13.2506 0 13.6481 0 14.0625V21.0937C0.0369467 22.9919 0.825042 24.7978 2.19142 26.1158C3.55763 27.4339 5.39096 28.1564 7.28892 28.125H20.3123V25.7812C20.3123 24.9524 20.6415 24.1575 21.2276 23.5716C21.8135 22.9855 22.6085 22.6562 23.4373 22.6562H26.5623C27.391 22.6562 28.186 22.9855 28.7719 23.5716C29.358 24.1575 29.6873 24.9525 29.6873 25.7812V28.125H42.7106C44.6087 28.1564 46.442 27.4339 47.8081 26.1158C49.1745 24.7978 49.9625 22.9918 49.9995 21.0937V14.0625C49.9995 13.6481 49.835 13.2507 49.5418 12.9577C49.2489 12.6645 48.8514 12.5 48.437 12.5H48.4375ZM29.6875 12.5H20.3125V7.8125H29.6875V12.5ZM50 25.9608V43.75C50 44.1644 49.8354 44.5618 49.5423 44.8548C49.2494 45.148 48.8519 45.3125 48.4375 45.3125H1.5625C1.14811 45.3125 0.750667 45.1479 0.457667 44.8548C0.164533 44.5619 0 44.1644 0 43.75V25.9608C0.82925 27.1187 1.92383 28.0611 3.19188 28.7095C4.45996 29.3578 5.86487 29.6931 7.28904 29.6874H20.3124V32.0312C20.3124 32.86 20.6416 33.6549 21.2278 34.2408C21.8137 34.8269 22.6086 35.1562 23.4374 35.1562H26.5624C27.3912 35.1562 28.1861 34.8269 28.772 34.2408C29.3581 33.6549 29.6874 32.8599 29.6874 32.0312V29.6874H42.7107C44.1349 29.6931 45.5398 29.3578 46.8079 28.7095C48.076 28.0611 49.1705 27.1187 49.9998 25.9608H50ZM23.4375 33.5937C23.0231 33.5937 22.6257 33.4292 22.3327 33.1361C22.0395 32.8431 21.875 32.4457 21.875 32.0312V25.7812C21.875 25.3669 22.0396 24.9694 22.3327 24.6764C22.6256 24.3833 23.0231 24.2187 23.4375 24.2187H26.5625C26.9769 24.2187 27.3743 24.3833 27.6673 24.6764C27.9605 24.9694 28.125 25.3668 28.125 25.7812V32.0312C28.125 32.4456 27.9605 32.8431 27.6673 33.1361C27.3744 33.4292 26.9769 33.5937 26.5625 33.5937H23.4375Z" fill="#005F83"/>
</g>
<defs>
<clipPath id="clip0_6_1247">
<rect width="50" height="50" fill="white"/>
</clipPath>
</defs>
</svg>
