<svg width="90" height="68" viewBox="0 0 90 68" fill="none" xmlns="http://www.w3.org/2000/svg">
<path d="M61.0529 26.3989H64.5734L62.8212 21.7557L61.0529 26.3989Z" fill="#005F83"/>
<path d="M71.9142 0H18.0862C10.8166 0 4.90265 5.91416 4.90265 13.1836V48.758H85.0979V13.1836C85.0977 5.91416 79.1838 0 71.9142 0ZM33.2586 30.3806C32.5436 33.9476 29.3048 36.344 25.1991 36.344C21.939 36.344 18.8776 35.029 16.7997 32.7361L20.7075 29.195C21.7719 30.3695 23.4509 31.0707 25.1992 31.0707C26.744 31.0707 27.8827 30.3356 27.9569 29.2685C28.0232 28.314 27.3012 27.4959 25.5844 26.9963C22.6216 26.1399 20.0627 25.4 18.4694 22.9025C17.4192 21.2558 17.1474 19.0818 17.7609 17.2287C18.383 15.3489 19.8592 13.8816 21.9176 13.0978C26.094 11.5073 30.1434 13.6188 31.8775 15.1172L28.4299 19.1074L28.4459 19.1211C28.422 19.1014 26.0616 17.1621 23.7944 18.026C22.9445 18.3496 22.8111 18.7529 22.7671 18.8854C22.6246 19.3164 22.752 19.8466 22.9153 20.0665C23.6942 21.1166 25.2361 21.4066 27.542 22.0732C32.3345 23.4675 33.8649 27.357 33.2586 30.3806ZM48.3368 36.3361H36.5865V12.5819H41.86V31.0628H48.3368V36.3361ZM68.2523 36.1471L66.5636 31.6724H59.0443L57.3401 36.1471H51.6972L60.6248 12.7065L65.0409 12.7021L73.8887 36.1471H68.2523Z" fill="#005F83"/>
<path d="M31.7578 54.0317H57.2461V67.6335H31.7578V54.0317Z" fill="#005F83"/>
<path d="M62.5195 54.0317V67.6335H76.3982C83.9103 67.6335 89.9999 61.5437 89.9999 54.0317H62.5195Z" fill="#005F83"/>
<path d="M0 54.0317C0 61.5437 6.08977 67.6335 13.6018 67.6335H26.4844V54.0317H0Z" fill="#005F83"/>
</svg>
