<svg width="90" height="85" viewBox="0 0 90 85" fill="none" xmlns="http://www.w3.org/2000/svg">
<path d="M78.0152 22.4541C69.2649 13.7037 55.0779 13.7037 46.3275 22.4541L33.7291 35.0525L37.6901 39.0136C39.8777 41.2012 43.4245 41.2012 45.6121 39.0136L56.651 27.9747L80.2359 51.5596C86.6893 42.7917 85.9493 30.388 78.0152 22.4541Z" fill="#005F83"/>
<path d="M79.7126 4.09782e-08L68.3905 11.3221C69.8156 11.6499 71.2164 12.0902 72.5848 12.6452C76.0219 14.0389 79.1035 16.0847 81.7443 18.7253C85.6872 22.6682 88.3287 27.6903 89.3619 33.1154L90 32.4773V4.09782e-08H79.7126Z" fill="#005F83"/>
<path d="M17.4101 12.6403C18.7787 12.0853 20.1793 11.645 21.6046 11.3171L10.2874 0H0V32.4773L0.630176 33.1075C0.96873 31.3249 1.48236 29.5778 2.1709 27.8798C3.56467 24.4427 5.61041 21.3611 8.251 18.7204C10.8916 16.0796 13.9732 14.034 17.4101 12.6403Z" fill="#005F83"/>
<path d="M49.3409 42.7424C47.2869 44.7964 44.556 45.9276 41.651 45.9276C38.7462 45.9276 36.0153 44.7964 33.9611 42.7424L26.2712 35.0525L41.0908 20.233C32.3225 13.7749 19.9155 14.5134 11.9797 22.449C3.22928 31.1994 3.22928 45.3864 11.9797 54.1368L42.8191 84.9762L48.8765 78.9187L39.1781 69.2204L42.907 65.4915L55.2461 77.8307L59.4392 73.6376L47.1001 61.2984L50.8289 57.5696L65.8086 72.5493L70.0017 68.3562L55.022 53.3765L58.7508 49.6477L76.3713 67.268L82.4287 61.2105L56.6508 35.4324L49.3409 42.7424Z" fill="#005F83"/>
</svg>
