<svg width="59" height="42" viewBox="0 0 59 42" fill="none" xmlns="http://www.w3.org/2000/svg">
<path d="M18.4644 23.877C20.0508 23.877 21.3415 22.5864 21.3415 21C21.3415 19.4136 20.0508 18.123 18.4644 18.123C16.8781 18.123 15.5875 19.4136 15.5875 21C15.5875 22.5864 16.8781 23.877 18.4644 23.877Z" fill="white"/>
<path d="M18.4644 27.3065C15.9566 27.3065 13.8264 28.954 13.0992 31.2238H23.8296C23.1025 28.954 20.9722 27.3065 18.4644 27.3065Z" fill="white"/>
<path d="M53.3615 0H5.60769C2.59693 0 0.219482 2.44524 0.219482 5.38821V36.6119C0.219482 39.6225 2.66472 42 5.60769 42H53.3615C56.3722 42 58.7497 39.5548 58.7497 36.6118V5.38821C58.7497 2.37733 56.3045 0 53.3615 0ZM25.8111 34.6533H11.1176C10.1706 34.6533 9.40289 33.8856 9.40289 32.9386C9.40289 29.6628 11.1501 26.7877 13.7615 25.1958C12.7652 24.0802 12.158 22.6099 12.158 21.0001C12.158 17.5227 14.987 14.6936 18.4644 14.6936C21.9419 14.6936 24.771 17.5227 24.771 21.0001C24.771 22.61 24.1638 24.0803 23.1674 25.1959C25.7788 26.7879 27.526 29.663 27.526 32.9387C27.5259 33.8856 26.7581 34.6533 25.8111 34.6533ZM44.1781 34.6533H34.9947C34.0477 34.6533 33.2799 33.8856 33.2799 32.9386C33.2799 31.9916 34.0477 31.2238 34.9947 31.2238H44.1781C45.1251 31.2238 45.8928 31.9916 45.8928 32.9386C45.8928 33.8856 45.1251 34.6533 44.1781 34.6533ZM47.8515 27.3065H34.9947C34.0477 27.3065 33.2799 26.5388 33.2799 25.5918C33.2799 24.6448 34.0477 23.877 34.9947 23.877H47.8515C48.7985 23.877 49.5663 24.6448 49.5663 25.5918C49.5663 26.5388 48.7985 27.3065 47.8515 27.3065ZM47.8515 19.9597H34.9947C34.0477 19.9597 33.2799 19.192 33.2799 18.245C33.2799 17.298 34.0477 16.5302 34.9947 16.5302H47.8515C48.7985 16.5302 49.5663 17.298 49.5663 18.245C49.5663 19.192 48.7985 19.9597 47.8515 19.9597ZM47.8515 10.7762H11.1176C10.1706 10.7762 9.40289 10.0084 9.40289 9.06144C9.40289 8.11444 10.1706 7.34668 11.1176 7.34668H47.8515C48.7985 7.34668 49.5663 8.11444 49.5663 9.06144C49.5663 10.0084 48.7985 10.7762 47.8515 10.7762Z" fill="white"/>
</svg>
