<svg width="90" height="83" viewBox="0 0 90 83" fill="none" xmlns="http://www.w3.org/2000/svg">
<path d="M0 63.7907C0 68.3562 3.71407 72.0703 8.27957 72.0703H42.3633V77.3438H25.3702C23.9138 77.3438 22.7335 78.5241 22.7335 79.9805C22.7335 81.4368 23.9138 82.6172 25.3702 82.6172H64.6298C66.0862 82.6172 67.2665 81.4368 67.2665 79.9805C67.2665 78.5241 66.0862 77.3438 64.6298 77.3438H47.6367V72.0703H81.7204C86.2859 72.0703 90 68.3562 90 63.7907V62.3845H0V63.7907Z" fill="#005F83"/>
<path d="M45 42.066C45.7725 40.6419 46.9034 37.1963 47.1746 31.5438H42.8254C43.0966 37.1963 44.2275 40.6419 45 42.066Z" fill="#005F83"/>
<path d="M31.5212 26.2704H37.5554C37.7161 22.8378 38.194 19.3641 39.0791 16.5173C35.2256 18.3664 32.3623 21.961 31.5212 26.2704Z" fill="#005F83"/>
<path d="M45 15.8945C44.2344 17.3062 43.1158 20.7044 42.8329 26.2704H47.1671C46.8842 20.7044 45.7656 17.3062 45 15.8945Z" fill="#005F83"/>
<path d="M31.5212 31.5438C32.3589 35.834 35.1995 39.4155 39.0262 41.2715C38.1624 38.4164 37.6996 34.9557 37.5485 31.5438H31.5212Z" fill="#005F83"/>
<path d="M50.9209 16.5173C51.806 19.3641 52.2839 22.8378 52.4446 26.2704H58.4795C57.6377 21.961 54.7744 18.3657 50.9209 16.5173Z" fill="#005F83"/>
<path d="M50.9731 41.2722C54.8005 39.4155 57.6411 35.834 58.4789 31.5438H52.4515C52.2997 34.9557 51.8376 38.4164 50.9731 41.2722Z" fill="#005F83"/>
<path d="M81.7204 0H8.27957C3.71407 0 0 3.71407 0 8.27957V57.1111H90V8.27957C90 3.71407 86.2859 0 81.7204 0ZM45 47.9134C34.5197 47.9134 25.9937 39.3874 25.9937 28.9071C25.9937 18.4268 34.5197 9.90074 45 9.90074C55.4803 9.90074 64.0063 18.4268 64.0063 28.9071C64.0063 39.3874 55.4803 47.9134 45 47.9134Z" fill="#005F83"/>
</svg>
