<svg width="60" height="42" viewBox="0 0 60 42" fill="none" xmlns="http://www.w3.org/2000/svg">
<mask id="mask0_55_147" style="mask-type:alpha" maskUnits="userSpaceOnUse" x="9" y="0" width="42" height="42">
<rect x="9" width="42" height="42" fill="#D9D9D9"/>
</mask>
<g mask="url(#mask0_55_147)">
<path d="M24.1084 39.375L20.7834 33.7167L14.2792 32.3458L14.9792 25.9L10.7501 21L14.9792 16.1292L14.2792 9.68332L20.7834 8.3125L24.1084 2.625L30.0001 5.27918L35.8917 2.625L39.2459 8.3125L45.7209 9.68332L45.0209 16.1292L49.2501 21L45.0209 25.9L45.7209 32.3458L39.2459 33.7167L35.8917 39.375L30.0001 36.7208L24.1084 39.375ZM28.1334 26.95L38.0501 17.0917L35.9209 15.05L28.1334 22.7792L24.1084 18.6667L21.9501 20.7958L28.1334 26.95Z" fill="white"/>
</g>
</svg>
