<svg width="90" height="90" viewBox="0 0 90 90" fill="none" xmlns="http://www.w3.org/2000/svg">
<path d="M8.26172 53.0859H2.63672C1.18055 53.0859 0 54.2665 0 55.7227V87.3633C0 88.8195 1.18055 90 2.63672 90H10.8984V55.7227C10.8984 54.2665 9.71789 53.0859 8.26172 53.0859Z" fill="#005F83"/>
<path d="M79.2784 54.8452L67.7544 62.9144C67.9565 63.7654 68.0667 64.652 68.0667 65.5648C68.0667 71.8757 62.9504 76.9917 56.6395 76.9911L40.4924 76.9899C39.0363 76.9897 37.8557 75.8092 37.8559 74.353C37.8561 72.8968 39.0366 71.7163 40.4928 71.7165L56.6399 71.7177C60.0379 71.7179 62.7931 68.9629 62.7933 65.5647C62.7933 62.1666 60.0386 59.4118 56.6406 59.4118H42.1813C39.9284 59.4118 37.7336 58.7649 35.7989 57.6102C30.6942 54.5636 24.4519 54.2791 19.0898 56.8515L16.1719 58.2513V90H52.5734C58.7067 90 64.5272 87.6672 68.9627 83.4314L87.8922 65.3541C89.2383 64.0684 90 62.2879 90 60.4266C90 54.9137 83.7942 51.6832 79.2784 54.8452Z" fill="#005F83"/>
<path d="M76.6406 17.5781C75.1845 17.5781 74.0039 18.7587 74.0039 20.2148C74.0039 21.671 75.1845 22.8516 76.6406 22.8516H81.9141C83.3702 22.8516 84.5508 21.671 84.5508 20.2148C84.5508 18.7587 83.3702 17.5781 81.9141 17.5781H76.6406Z" fill="#005F83"/>
<path d="M76.2012 11.0725L80.768 8.43574C82.029 7.70766 82.4611 6.09504 81.733 4.83398C81.0049 3.57293 79.3923 3.14086 78.1312 3.86895L73.5645 6.50566C72.3034 7.23375 71.8713 8.84637 72.5994 10.1074C73.3275 11.3685 74.9401 11.8005 76.2012 11.0725Z" fill="#005F83"/>
<path d="M73.5645 33.924L78.1312 36.5607C79.3923 37.2888 81.0049 36.8568 81.733 35.5957C82.4611 34.3346 82.029 32.722 80.768 31.9939L76.2012 29.3572C74.9401 28.6291 73.3275 29.0612 72.5994 30.3223C71.8713 31.5833 72.3034 33.1959 73.5645 33.924Z" fill="#005F83"/>
<path d="M20.3906 22.8516C21.8468 22.8516 23.0273 21.671 23.0273 20.2148C23.0273 18.7587 21.8468 17.5781 20.3906 17.5781H15.1172C13.661 17.5781 12.4805 18.7587 12.4805 20.2148C12.4805 21.671 13.661 22.8516 15.1172 22.8516H20.3906Z" fill="#005F83"/>
<path d="M16.2633 8.43574L20.8301 11.0725C22.0911 11.8005 23.7038 11.3685 24.4318 10.1074C25.1599 8.84637 24.7279 7.23375 23.4668 6.50566L18.9 3.86895C17.6389 3.14086 16.0263 3.57293 15.2982 4.83398C14.5702 6.09504 15.0021 7.70766 16.2633 8.43574Z" fill="#005F83"/>
<path d="M18.9 36.5607L23.4668 33.924C24.7279 33.1959 25.1599 31.5833 24.4318 30.3223C23.7038 29.0612 22.0911 28.6291 20.8301 29.3572L16.2633 31.9939C15.0022 32.722 14.5702 34.3346 15.2982 35.5957C16.0263 36.8568 17.6388 37.2888 18.9 36.5607Z" fill="#005F83"/>
<path d="M38.1885 48.3398C38.1885 51.7377 40.943 54.4922 44.3408 54.4922H52.6904C56.0883 54.4922 58.8428 51.7377 58.8428 48.3398V46.582H38.1885V48.3398Z" fill="#005F83"/>
<path d="M35.6583 35.7991C37.2662 37.1248 38.1885 38.9493 38.1885 40.8046V41.3086H45.8789V24.8226L41.3778 20.3215C40.3481 19.2918 40.3481 17.6224 41.3778 16.5927C42.4074 15.563 44.077 15.563 45.1067 16.5927L48.5156 20.0016L51.9247 16.5927C52.9543 15.563 54.6238 15.563 55.6536 16.5927C56.6833 17.6224 56.6833 19.2918 55.6536 20.3215L51.1523 24.8226V41.3086H58.8428V40.8046C58.8428 38.9493 59.7651 37.1248 61.373 35.7991C66.0488 31.9442 68.7305 26.2638 68.7305 20.2148C68.7305 9.06838 59.6621 0 48.5156 0C37.3692 0 28.3008 9.06838 28.3008 20.2148C28.3008 26.2638 30.9825 31.9442 35.6583 35.7991Z" fill="#005F83"/>
</svg>
