<svg width="50" height="50" viewBox="0 0 50 50" fill="none" xmlns="http://www.w3.org/2000/svg">
<path d="M37.5 38.2812C37.5 38.7127 37.1502 39.0625 36.7188 39.0625C36.2873 39.0625 35.9375 38.7127 35.9375 38.2812C35.9375 37.8498 36.2873 37.5 36.7188 37.5C37.1502 37.5 37.5 37.8498 37.5 38.2812Z" fill="#005F83"/>
<path d="M48.4375 33.5938C48.4375 31.7969 47.5 30.0781 46.0156 29.0625C46.3281 27.2656 45.7812 25.4688 44.5312 24.2188C43.2812 22.9688 41.4062 22.4219 39.6875 22.7344C38.6719 21.25 36.9531 20.3125 35.1562 20.3125C33.3594 20.3125 31.6406 21.25 30.625 22.7344C28.8281 22.4219 27.0312 22.9688 25.7812 24.2188C24.5312 25.4688 23.9844 27.3438 24.2969 29.0625C22.8125 30.0781 21.875 31.7969 21.875 33.5938C21.875 35.3906 22.8125 37.1094 24.2969 38.125C23.9844 39.9219 24.5312 41.7188 25.7812 42.9688C27.0312 44.2188 28.9062 44.7656 30.625 44.4531C31.6406 45.9375 33.2812 46.875 35.1562 46.875C37.0312 46.875 38.6719 45.9375 39.6875 44.4531C41.4844 44.7656 43.2812 44.2188 44.5312 42.9688C45.7812 41.7188 46.3281 39.8438 46.0156 38.125C47.5 37.1094 48.4375 35.3906 48.4375 33.5938ZM32.8125 26.5625C34.1406 26.5625 35.1562 27.5781 35.1562 28.9062C35.1562 30.2344 34.1406 31.25 32.8125 31.25C31.4844 31.25 30.4688 30.2344 30.4688 28.9062C30.4688 27.5781 31.4844 26.5625 32.8125 26.5625ZM36.7188 40.625C35.3906 40.625 34.375 39.6094 34.375 38.2812C34.375 36.9531 35.3906 35.9375 36.7188 35.9375C38.0469 35.9375 39.0625 36.9531 39.0625 38.2812C39.0625 39.6094 38.0469 40.625 36.7188 40.625ZM29.4529 38.9062L28.4373 37.7344L40.9373 26.7969L41.9529 27.9688L29.4529 38.9062Z" fill="#005F83"/>
<path d="M33.5938 28.9062C33.5938 29.3377 33.244 29.6875 32.8125 29.6875C32.381 29.6875 32.0312 29.3377 32.0312 28.9062C32.0312 28.4748 32.381 28.125 32.8125 28.125C33.244 28.125 33.5938 28.4748 33.5938 28.9062Z" fill="#005F83"/>
<path d="M23.4375 11.7188C20.8594 11.7188 18.75 13.8281 18.75 16.4062C18.75 18.9844 20.8594 21.0938 23.4375 21.0938C26.0156 21.0938 28.125 18.9844 28.125 16.4062C28.125 13.8281 26.0156 11.7188 23.4375 11.7188Z" fill="#005F83"/>
<path d="M39.1407 20C39.6094 19.7656 40.0782 19.6094 40.6251 19.6094V13.281C38.2032 12.9685 36.3284 11.0154 36.0159 8.67187H10.8597C10.5472 11.0937 8.59403 12.9685 6.25049 13.281V19.6094C8.67236 19.9219 10.5472 21.875 10.8597 24.2185H23.7505C23.7505 24.2185 24.2974 23.4373 24.688 23.1248C25.0005 22.8123 25.3911 22.4998 25.7817 22.2654C25.0005 22.4998 24.2192 22.656 23.438 22.656C20.0005 22.656 17.188 19.8435 17.188 16.406C17.188 12.9685 20.0005 10.156 23.438 10.156C26.8755 10.156 29.688 12.9685 29.688 16.406C29.688 18.5154 28.5942 20.4685 26.9536 21.5623C27.813 21.2498 28.6724 21.0154 29.6099 21.0154H29.9224C31.2505 19.531 33.1255 18.6717 35.1565 18.6717C36.6409 18.7498 38.0472 19.2185 39.1409 19.9998L39.1407 20Z" fill="#005F83"/>
<path d="M42.9666 3.90625H3.90405C2.57593 3.90625 1.5603 4.92187 1.5603 6.25V26.5625C1.5603 27.8906 2.57593 28.9062 3.90405 28.9062H22.1074C22.2636 28.75 22.4199 28.5156 22.6543 28.3594V28.125C22.6543 27.2656 23.0449 25.7812 23.0449 25.7812H9.37322V25C9.37322 22.8125 7.65447 21.0937 5.46697 21.0937H4.68572V11.7187H5.46697C7.65447 11.7187 9.37322 10 9.37322 7.8125V7.03125H37.4982V7.8125C37.4982 10 39.217 11.7187 41.4045 11.7187H42.1857V21.25C43.3576 21.4844 44.3732 22.0312 45.3107 22.8125V6.25C45.3107 4.92187 44.2951 3.90625 42.967 3.90625H42.9666Z" fill="#005F83"/>
</svg>
