<svg width="50" height="50" viewBox="0 0 50 50" fill="none" xmlns="http://www.w3.org/2000/svg">
<path d="M33.3639 4.63412C33.3639 7.19347 31.2892 9.26824 28.7298 9.26824C26.1705 9.26824 24.0957 7.19347 24.0957 4.63412C24.0957 2.07477 26.1705 0 28.7298 0C31.2892 0 33.3639 2.07477 33.3639 4.63412Z" fill="#005F83"/>
<path d="M8.34141 19.4642C8.34141 21.7677 6.47417 23.6349 4.17071 23.6349C1.86724 23.6349 0 21.7677 0 19.4642C0 17.1608 1.86724 15.2935 4.17071 15.2935C6.47417 15.2935 8.34141 17.1608 8.34141 19.4642Z" fill="#005F83"/>
<path d="M33.3638 10.196H24.1087C23.5111 10.1933 22.9158 10.4193 22.4618 10.8736L13.1943 20.1419C13.1397 20.1974 13.0981 20.2595 13.0507 20.3181L8.80846 24.5603L4.17071 24.5618C1.86755 24.5618 0 26.4302 0 28.7325V36.1471H1.85457V47.269H6.48777L6.48867 27.8049H8.80751L13.1933 23.4191C13.6456 23.8713 14.2378 24.0976 14.8309 24.0976C15.425 24.0976 16.0163 23.8713 16.4695 23.4191L24.0974 15.7924V28.7324L24.0956 47.2689H33.3638V28.7324C35.9238 28.7324 37.9997 26.6573 37.9997 24.0983V14.8293C37.9997 12.2703 35.9237 10.1961 33.3638 10.1961L33.3638 10.196Z" fill="#005F83"/>
</svg>
