<svg width="50" height="50" viewBox="0 0 50 50" fill="none" xmlns="http://www.w3.org/2000/svg">
<path d="M17.452 24.2387C17.0273 24.1372 16.6091 24.0075 16.202 23.8465C16.1937 23.895 16.1845 23.9433 16.1773 23.992C16.1596 24.1144 16.1461 24.2371 16.1355 24.3603C16.1277 24.4513 16.12 24.5423 16.1164 24.6336C16.1111 24.7676 16.1124 24.9017 16.1156 25.0358C16.1176 25.1183 16.1174 25.2008 16.1228 25.2835C16.1326 25.4344 16.1513 25.5848 16.1719 25.7352C16.1812 25.8019 16.1861 25.8688 16.1975 25.9354C16.2346 26.1526 16.2813 26.3691 16.3414 26.5835C16.4267 26.8872 16.5403 27.1769 16.6674 27.4585C16.6944 27.5185 16.7224 27.5778 16.751 27.6367C16.9923 28.1286 17.3017 28.5747 17.655 28.9805C17.9154 28.6395 18.2046 28.3182 18.5121 28.0132C18.1955 27.4399 17.9291 26.8341 17.7479 26.1886C17.5674 25.5449 17.4802 24.8909 17.452 24.2387Z" fill="#005F83"/>
<path d="M21.8757 27.5596C21.485 27.7308 21.1356 27.9235 20.8197 28.1402C20.7323 28.1968 20.6628 28.2518 20.584 28.307C21.2479 29.1205 22.0843 29.7837 23.0448 30.2347L22.2523 27.4092C22.1273 27.4592 21.994 27.5043 21.8756 27.5596L21.8757 27.5596Z" fill="#005F83"/>
<path d="M19.402 29.3333C19.1982 29.5514 19.015 29.7905 18.835 30.0325C19.5843 30.5477 20.4373 30.9131 21.3555 31.0635C20.6206 30.5854 19.9587 30.0076 19.402 29.3333Z" fill="#005F83"/>
<path d="M18.2895 20.1571C17.7435 20.6265 17.2734 21.1872 16.9102 21.8337C16.8164 22.0005 16.7327 22.1714 16.6553 22.3437C16.9386 22.4608 17.2305 22.5544 17.5259 22.6367C17.6506 21.7764 17.9134 20.9435 18.2896 20.157L18.2895 20.1571Z" fill="#005F83"/>
<path d="M20.9619 22.8083L20.1678 19.977C19.5817 20.862 19.2119 21.8638 19.0679 22.9044C19.699 22.9495 20.3351 22.9175 20.9619 22.8083Z" fill="#005F83"/>
<path d="M19.7387 26.9917C19.811 26.9419 19.878 26.888 19.9527 26.8397C20.3326 26.5791 20.7683 26.3388 21.2307 26.1362C21.4161 26.0494 21.6241 25.9738 21.8282 25.8968L21.386 24.3198C20.603 24.4711 19.8124 24.5226 19.031 24.4733C19.0684 24.9062 19.1326 25.339 19.2525 25.766C19.3726 26.1954 19.544 26.6004 19.7387 26.9917Z" fill="#005F83"/>
<path d="M24.1345 21.485C23.4704 20.671 22.6337 20.0073 21.6726 19.5561L22.4661 22.3854C23.0621 22.151 23.6214 21.8491 24.1345 21.485Z" fill="#005F83"/>
<path d="M26.4277 29.6338C26.9739 29.1642 27.4442 28.6035 27.8074 27.9568C27.9007 27.7908 27.9837 27.6211 28.0609 27.4493C27.7728 27.3328 27.4837 27.2293 27.1929 27.1476C27.0685 28.0104 26.8048 28.8453 26.4277 29.6338Z" fill="#005F83"/>
<path d="M24.1767 26.9175C24.0297 26.9336 23.8959 26.9634 23.7571 26.9868L24.5499 29.8135C25.1361 28.9283 25.5057 27.9263 25.6498 26.8858C25.5599 26.8801 25.4735 26.8696 25.3816 26.867C24.919 26.8442 24.5772 26.8635 24.1767 26.9175Z" fill="#005F83"/>
<path d="M36.617 36.075C36.7184 35.8945 36.7436 35.681 36.688 35.4814L29.0921 8.40183C28.9762 7.98647 28.5459 7.74608 28.1286 7.8605L8.57066 13.3459C8.37161 13.4021 8.20217 13.5347 8.10062 13.7155C7.99922 13.896 7.97399 14.1096 8.02966 14.3091L15.6255 41.3887C15.7223 41.7336 16.036 41.9593 16.3769 41.9593C16.4471 41.9593 16.5181 41.9497 16.589 41.93L36.1469 36.4446C36.3462 36.3885 36.5156 36.2557 36.617 36.075ZM30.0757 26.0883C30.0668 26.146 30.0567 26.2031 30.0464 26.2605C29.8944 27.1134 29.6072 27.9451 29.1702 28.7226C28.1479 30.5418 26.4778 31.8541 24.4689 32.4176C23.7777 32.6115 23.0666 32.7098 22.3556 32.7098C20.4565 32.7098 18.6769 32.0091 17.2952 30.8312C17.2796 30.8196 17.2607 30.8149 17.2459 30.8021C17.2228 30.782 17.2042 30.7578 17.1813 30.7374C16.9635 30.5447 16.7599 30.3366 16.5642 30.1204C16.4954 30.0442 16.4265 29.9689 16.3609 29.8903C16.1744 29.6671 16.0012 29.4326 15.8398 29.1884C15.79 29.1127 15.7423 29.0364 15.6951 28.9589C15.5334 28.6951 15.385 28.4223 15.2547 28.1378C15.2306 28.0849 15.2101 28.0309 15.1871 27.9773C15.0517 27.6632 14.9306 27.3408 14.8364 27.0052C14.7429 26.6723 14.6803 26.3365 14.6314 26.0001C14.6194 25.9173 14.6091 25.8349 14.5997 25.7519C14.5624 25.4218 14.5398 25.0914 14.545 24.762C14.5452 24.7542 14.5442 24.7464 14.5444 24.7385C14.5507 24.4015 14.5862 24.0668 14.6363 23.7342C14.6492 23.6489 14.664 23.5646 14.6796 23.4796C14.735 23.1805 14.8045 22.8839 14.8953 22.5917C14.9044 22.5621 14.9076 22.5314 14.9171 22.5017C14.9182 22.4983 14.9212 22.4962 14.9223 22.4929C15.0815 22.0039 15.2896 21.5268 15.5473 21.0683C16.5696 19.2492 18.2397 17.9368 20.2485 17.3733C20.9398 17.1795 21.6509 17.0812 22.3618 17.0812C24.2541 17.0812 26.0275 17.7771 27.4068 18.9474C27.4267 18.9615 27.4518 18.9656 27.4705 18.9817C27.5284 19.0318 27.5756 19.0917 27.6319 19.1433C27.7978 19.2952 27.9565 19.455 28.109 19.621C28.2013 19.7216 28.2927 19.8219 28.3793 19.927C28.5509 20.1342 28.7109 20.3515 28.8609 20.5768C28.92 20.6661 28.9765 20.7563 29.032 20.8479C29.1884 21.1046 29.3326 21.3699 29.4594 21.6461C29.485 21.7024 29.5071 21.76 29.5314 21.817C29.6661 22.1302 29.7867 22.4513 29.8806 22.7858C29.9742 23.1193 30.0369 23.4558 30.0857 23.7929C30.097 23.8714 30.1069 23.9493 30.1157 24.028C30.1946 24.7179 30.1808 25.4088 30.0755 26.0883L30.0757 26.0883Z" fill="#005F83"/>
<path d="M28.5424 24.0263C28.5344 23.9704 28.5305 23.9143 28.5209 23.8584C28.484 23.64 28.4369 23.4226 28.3766 23.2072C28.2908 22.9014 28.1765 22.6097 28.0483 22.3265C28.0232 22.2709 27.9973 22.2159 27.9708 22.161C27.7289 21.6662 27.4178 21.2178 27.0626 20.8101C26.8007 21.1548 26.5144 21.479 26.2083 21.7828C26.5235 22.3545 26.7891 22.9585 26.9696 23.6022C27.1508 24.2476 27.2383 24.9035 27.2662 25.5577C27.6889 25.6591 28.1067 25.7839 28.516 25.9436C28.5219 25.9096 28.5282 25.8757 28.5334 25.8415C28.5569 25.6892 28.5738 25.5363 28.5858 25.383C28.591 25.316 28.5969 25.2489 28.6 25.1815C28.6072 25.0256 28.606 24.8697 28.6013 24.7136C28.5993 24.6485 28.5998 24.5836 28.5958 24.5185C28.5855 24.3539 28.5655 24.19 28.5424 24.0263L28.5424 24.0263Z" fill="#005F83"/>
<path d="M24.981 22.8042C24.3377 23.2537 23.6353 23.621 22.8904 23.8988L23.3328 25.4762C23.552 25.4347 23.7722 25.3899 23.9869 25.3665C24.4569 25.3029 24.9626 25.2811 25.4441 25.3063C25.5224 25.3082 25.6059 25.3188 25.6866 25.3234C25.6493 24.8883 25.585 24.4536 25.4646 24.0245C25.345 23.5971 25.1746 23.1938 24.981 22.8042Z" fill="#005F83"/>
<path d="M25.3133 20.4546C25.5182 20.235 25.7147 20.0075 25.8931 19.7646C25.1413 19.2456 24.2844 18.8779 23.3618 18.7269C24.096 19.2043 24.757 19.7813 25.3133 20.4546Z" fill="#005F83"/>
<path d="M41.3182 12.72L31.5719 11.456L38.1923 35.0597C38.361 35.6644 38.2854 36.2964 37.9788 36.8412C37.6736 37.3851 37.1731 37.7792 36.5704 37.9489L26.5867 40.749L37.5079 42.162C37.5414 42.1665 37.575 42.1685 37.6087 42.1685C37.9956 42.1685 38.332 41.8812 38.3831 41.4875L41.9926 13.5954C42.0475 13.1673 41.7454 12.7756 41.3181 12.7202L41.3182 12.72Z" fill="#005F83"/>
</svg>
