<svg width="52" height="42" viewBox="0 0 52 42" fill="none" xmlns="http://www.w3.org/2000/svg">
<path d="M47.6844 24.4467C42.1638 23.9284 40.0154 20.0334 38.0421 15.6805C36.5825 12.4501 33.0516 7.79278 28.9695 7.96244C25.3592 8.11117 22.8604 6.5076 20.3803 4.39507C16.0811 0.732419 11.5717 -1.93323 5.83621 1.80379C7.66006 4.31838 6.09542 7.20016 2.56681 7.55806C1.56264 7.65799 0.50943 6.93057 0.201173 8.67126C-0.0230141 9.90996 -0.387318 10.8047 1.21936 11.4485C1.9573 11.7506 2.4664 12.8615 2.86573 13.7004C5.32478 18.8644 10.6609 22.4852 10.9925 28.8298C11.0299 29.5851 11.971 30.6007 12.744 30.9563C14.4581 31.7418 14.9812 33.2756 15.8429 34.684C17.1156 36.764 18.6102 38.7115 20.9034 42C20.3757 37.5611 22.5942 38.3373 24.2732 38.3722C25.9313 38.4094 27.6944 38.3722 29.2077 38.9184C30.5084 39.3948 31.209 39.2902 31.8326 38.1956C33.2431 35.7019 35.7278 35.0047 38.2242 34.8978C41.7808 34.7491 44.9405 33.3802 48.2169 32.3344C51.108 31.4094 51.0426 28.6718 51.2107 26.4965C51.3812 24.3305 49.0342 24.5699 47.6844 24.4467Z" fill="white"/>
</svg>
