<svg width="50" height="50" viewBox="0 0 50 50" fill="none" xmlns="http://www.w3.org/2000/svg">
<path d="M12.705 13.6425C12.0605 13.6425 12.0605 12.6659 12.705 12.6659H31.25C31.8946 12.6659 31.8946 13.6425 31.25 13.6425H12.705ZM10.664 10.2831C10.0195 10.2831 10.0195 9.30654 10.664 9.30654H31.2498C31.8944 9.30654 31.8944 10.2831 31.2498 10.2831H10.664ZM37.4511 6.2597C35.996 6.2597 34.8046 7.45112 34.8046 8.9062V16.1033H40.1075V8.9062C40.0977 7.45112 38.9063 6.2597 37.4513 6.2597H37.4511ZM27.4023 20.791C26.7578 20.791 26.7578 19.8144 27.4023 19.8144H31.25C31.8946 19.8144 31.8946 20.791 31.25 20.791H27.4023ZM24.3066 17.4316C23.6621 17.4316 23.6621 16.455 24.3066 16.455H31.25C31.8945 16.455 31.8945 17.4316 31.25 17.4316H24.3066ZM27.2461 41.8357H41.3769C41.7871 41.8357 42.1289 41.4939 42.1289 41.0838V40.1854C42.1289 39.7752 41.7871 39.4334 41.3769 39.4334H27.2461C26.8359 39.4334 26.4941 39.7752 26.4941 40.1854V41.0838C26.4941 41.4939 26.8359 41.8357 27.2461 41.8357ZM28.125 42.8123V44.3455H40.4883V42.8123H28.125ZM37.3533 25.2536C35.6737 23.5739 32.9392 23.5739 31.2596 25.2536C29.58 26.9332 29.5799 29.6677 31.2596 31.3473C32.9393 33.0269 35.6738 33.027 37.3533 31.3473C39.0428 29.6677 39.0428 26.9432 37.3533 25.2536ZM31.7575 32.939C28.6813 31.2495 28.0759 27.0602 30.5661 24.5698C31.4157 23.7202 32.5485 23.1538 33.8181 23.0464V8.90558C33.8181 7.86066 34.2673 6.92316 34.9704 6.25908H10.0679C8.6128 6.25908 7.42139 7.4505 7.42139 8.90558V41.6497H25.6051C25.5465 41.474 25.5075 41.2787 25.5075 41.0833V40.1849C25.5075 39.2377 26.2887 38.4564 27.236 38.4564H31.7476V32.9389L31.7575 32.939ZM35.8786 33.3492C34.863 33.6714 33.7497 33.6714 32.7341 33.3492V38.4567H35.8786V33.3492ZM24.4528 23.5346C21.1618 20.2436 15.8394 20.2436 12.5486 23.5346C9.26734 26.8158 9.26734 32.1479 12.5486 35.4387C15.8396 38.7297 21.1619 38.7297 24.4528 35.4387C27.734 32.1477 27.734 26.8158 24.4528 23.5346ZM18.4957 20.0873C23.6811 20.0873 27.8903 24.2965 27.8903 29.4819C27.8903 34.6673 23.6811 38.8765 18.4957 38.8765C13.3103 38.8765 9.10109 34.6673 9.10109 29.4819C9.10109 24.2965 13.3103 20.0873 18.4957 20.0873ZM21.4449 30.2044C23.4273 30.2044 24.4136 32.6067 23.0171 34.0032C21.6206 35.3997 19.2183 34.4036 19.2183 32.431C19.2183 31.2005 20.2144 30.2044 21.4449 30.2044ZM22.3238 31.5521C21.5426 30.7611 20.1851 31.3177 20.1851 32.431C20.1851 33.5443 21.5328 34.1009 22.3238 33.3099C22.8121 32.8314 22.8121 32.0404 22.3238 31.5521ZM22.6558 25.1654C23.1148 24.7162 23.7984 25.3998 23.3492 25.8588L14.863 34.345C14.404 34.7942 13.7204 34.1107 14.1696 33.6517L22.6558 25.1654ZM16.0838 24.8529C18.0662 24.8529 19.0525 27.2552 17.656 28.6517C16.2595 30.0482 13.8572 29.0521 13.8572 27.0795C13.8572 25.849 14.8533 24.8529 16.0838 24.8529ZM16.9627 26.1908C16.1814 25.3998 14.824 25.9662 14.824 27.0697C14.824 28.183 16.1717 28.7396 16.9627 27.9486C17.4607 27.4701 17.4607 26.6791 16.9627 26.1908Z" fill="#005F83"/>
</svg>
