<svg width="90" height="90" viewBox="0 0 90 90" fill="none" xmlns="http://www.w3.org/2000/svg">
<path d="M10.1849 57.0581C4.56891 57.0581 0 61.656 0 67.3075C0 69.0964 0.467578 70.8599 1.35193 72.4073C1.39342 72.4801 1.43174 72.5541 1.46689 72.6293L8.76709 85.6923C9.20584 86.4775 10.3206 86.502 10.793 85.7366L18.6321 73.0352C18.8179 72.7355 18.8919 72.6175 18.9306 72.5556C18.9526 72.5205 18.957 72.5133 18.9763 72.4813C18.9867 72.462 18.9974 72.443 19.0083 72.424C19.899 70.8725 20.3697 69.1035 20.3697 67.3077C20.3697 61.656 15.8008 57.0581 10.1849 57.0581ZM10.1849 71.431C7.9207 71.431 6.0852 69.5837 6.0852 67.3051C6.0852 65.0264 7.9207 63.1793 10.1849 63.1793C12.4492 63.1793 14.2847 65.0266 14.2847 67.3052C14.2847 69.5839 12.4492 71.431 10.1849 71.431Z" fill="#005F83"/>
<path d="M79.2457 39.2933C79.2241 39.2933 79.2023 39.2931 79.1805 39.2926C78.1242 39.2695 77.1588 38.6868 76.641 37.7603L65.7782 18.3227C65.7429 18.2596 65.7102 18.1956 65.6796 18.1306C64.3535 15.7252 63.6539 13.0061 63.6539 10.2495C63.6539 8.91668 63.8176 7.62205 64.1196 6.38156C61.8511 5.49932 59.2859 4.67191 56.6677 4.00852C56.8624 8.81894 55.5773 13.496 52.9249 17.5873C50.2618 21.6947 46.3537 25.0295 41.6231 27.2312C40.7078 27.6572 39.7823 28.0243 38.8872 28.3792C36.758 29.2235 34.7469 30.0208 33.4963 31.3856C32.7983 32.1474 32.2355 33.2038 31.6396 34.3223C31.0238 35.4778 30.3261 36.7873 29.3583 37.977C27.3018 40.5051 24.1376 42.3098 20.4486 43.0587C16.7643 43.8063 13.6134 43.8509 10.8156 43.1956C7.34133 42.381 6.22986 42.8904 5.24936 43.3389C4.80937 43.5403 4.31068 43.7687 3.69984 43.9086C3.62812 43.9249 3.25793 43.993 2.78227 44.0773C2.74728 44.7966 2.72883 45.5201 2.72883 46.248C2.72883 47.9888 2.94469 50.4376 3.22066 52.6338C5.33092 51.6154 7.69289 51.0439 10.1853 51.0439C19.0967 51.0439 26.3466 58.3399 26.3466 67.3077C26.3466 70.1128 25.6226 72.878 24.2511 75.3142C24.2221 75.3706 24.191 75.4261 24.1581 75.4812L24.1144 75.5545C24.0418 75.6756 24.0418 75.6756 23.9862 75.7642C23.9495 75.8227 23.8795 75.9345 23.7062 76.2138L20.4623 81.4695C22.1437 82.6836 23.554 83.5963 25.4229 84.5879C26.9924 83.4277 25.8998 84.2324 26.9924 83.4277C30.1535 81.0995 33.8189 76.6076 34.5563 72.9501C35.3405 69.0613 35.1362 65.0013 34.92 60.7029L34.8727 59.7531C34.7062 56.3558 34.6426 53.0381 35.676 49.7978C37.0058 45.6281 40.0959 42.4941 43.7405 41.6188C47.5014 40.7157 50.888 42.1884 53.8762 43.4876C54.4739 43.7476 55.0387 43.9931 55.5936 44.215C62.2281 46.8656 69.8377 46.5284 76.4502 46.0041C76.8132 45.9752 77.1768 45.9457 77.5406 45.9162C81.4844 45.5948 85.5584 45.2661 89.6778 45.9151C89.6212 40.902 88.3 35.0169 86.5642 30.128L81.784 37.8729C81.238 38.7571 80.2772 39.2933 79.2457 39.2933Z" fill="#005F83"/>
<path d="M12.1713 37.3375C14.1182 37.7942 16.4391 37.7369 19.2667 37.1626C21.607 36.6877 23.5485 35.6236 24.7337 34.1668C25.3336 33.4295 25.8383 32.4824 26.3725 31.48C27.0838 30.1449 27.89 28.6318 29.1027 27.3083C31.2819 24.9302 34.1583 23.7895 36.6963 22.7832C37.5497 22.4448 38.356 22.1252 39.1143 21.7721C46.8306 18.1809 51.2378 11.2164 50.6584 3.59332C50.6368 3.30926 50.6273 3.05332 50.6268 2.81848C49.0859 2.61176 47.5938 2.49557 46.2048 2.49557C25.1663 2.49557 7.61889 17.5344 3.59631 37.5124C5.40492 36.8007 7.82894 36.3199 12.1713 37.3375Z" fill="#005F83"/>
<path d="M88.606 15.4238C88.6166 15.4042 88.6275 15.3847 88.6386 15.3656C89.5293 13.8141 90 12.0451 90 10.2495C90 4.59791 85.4311 0 79.8152 0C74.1992 0 69.6303 4.59791 69.6303 10.2495C69.6303 12.0386 70.0977 13.8016 70.9822 15.3489C71.0239 15.4215 71.0622 15.4956 71.0972 15.5709L78.3974 28.6339C78.8361 29.4191 79.9509 29.4435 80.4233 28.6782L88.2624 15.9769C88.4487 15.6763 88.5224 15.5586 88.5611 15.4969C88.5827 15.4624 88.5872 15.4552 88.606 15.4238ZM79.8152 14.3729C77.551 14.3729 75.7155 12.5256 75.7155 10.247C75.7155 7.96834 77.551 6.12105 79.8152 6.12105C82.0795 6.12105 83.915 7.96834 83.915 10.247C83.915 12.5256 82.0795 14.3729 79.8152 14.3729Z" fill="#005F83"/>
<path d="M89.068 51.9057C85.5548 51.297 81.8961 51.5946 78.0228 51.9107C77.6547 51.9405 77.287 51.9706 76.9196 51.9998C69.6377 52.5769 61.2135 52.9309 53.3885 49.8046C52.7502 49.5497 52.1176 49.2746 51.5057 49.0085C49.1653 47.9911 46.9549 47.0299 45.1274 47.4687C43.5271 47.8529 42.0509 49.4886 41.3662 51.6354C40.6385 53.917 40.6981 56.5274 40.8415 59.4566L40.8885 60.3984C41.1138 64.8798 41.3471 69.5139 40.413 74.1459C39.4655 78.8451 35.8937 84.2256 31.7531 87.4241C36.3234 89.0687 41.2177 90 46.2048 90C68.3005 90 86.545 73.4119 89.3157 51.9358C89.2332 51.9284 89.1508 51.9202 89.068 51.9057Z" fill="#005F83"/>
</svg>
