<svg width="50" height="50" viewBox="0 0 50 50" fill="none" xmlns="http://www.w3.org/2000/svg">
<path fill-rule="evenodd" clip-rule="evenodd" d="M4.58326 1.45004H17.6878V15.2863H16.3015C15.876 13.4165 14.5818 11.8514 12.8358 11.0713C13.4494 10.4453 13.8275 9.58742 13.8275 8.64163C13.8275 6.72446 12.2728 5.16979 10.3557 5.16979C8.43851 5.16979 6.88385 6.72446 6.88385 8.64163C6.88385 9.58696 7.26194 10.4442 7.87506 11.0703C6.13239 11.8485 4.83647 13.4146 4.41056 15.2866H2.23901V3.79492C2.23901 2.50538 3.29368 1.45021 4.58326 1.45021V1.45004ZM41.9128 41.6642C41.316 42.0089 40.6863 42.057 40.0161 42.0298C39.8515 42.0229 39.4775 41.9871 39.2999 42.012C39.1458 42.1105 38.8853 42.3776 38.7603 42.4917C38.5068 42.7218 38.2478 42.9287 37.9651 43.0923L39.7302 47.1912L42.061 43.4351L46.3918 44.3221L44.2424 39.3317C44.2294 39.3359 44.2159 39.34 44.2028 39.3442C44.0461 39.3942 43.6815 39.4884 43.5241 39.5729C43.4131 39.7156 43.259 40.0582 43.1814 40.2062C42.8697 40.8003 42.5093 41.3197 41.913 41.6644L41.9128 41.6642ZM27.0728 41.6611C26.4765 41.3164 26.1181 40.797 25.8067 40.2028C25.7302 40.0565 25.575 39.7137 25.4639 39.5726C25.4369 39.5586 25.4041 39.5439 25.3676 39.5293L22.5932 45.4893L26.9478 44.7284L29.1691 48.5508L31.591 43.3487C31.0666 43.1846 30.6383 42.8679 30.2238 42.4903C30.1004 42.3778 29.8379 42.1084 29.6852 42.0121C29.5081 41.9865 29.1336 42.023 28.9691 42.0298C28.2983 42.0565 27.6691 42.0059 27.0727 41.6612L27.0728 41.6611ZM47.7462 28.6411C47.8904 29.4598 46.9202 30.1745 46.7784 30.978C46.6446 31.7354 47.2102 32.6677 46.9612 33.3504C46.7107 34.037 45.6738 34.3905 45.2935 35.0479C44.9128 35.7067 45.1233 36.7817 44.6555 37.34C44.1889 37.8968 43.094 37.877 42.5097 38.3682C41.93 38.8557 41.7633 39.9375 41.1274 40.3047C40.504 40.6646 39.4768 40.2735 38.7592 40.5339C38.0545 40.7896 37.527 41.7491 36.7957 41.8777C36.0644 42.0069 35.241 41.2855 34.491 41.2865C33.7275 41.2875 32.8963 42.0062 32.1873 41.8812C31.4638 41.7536 30.9373 40.7943 30.2259 40.5344C29.5093 40.2723 28.4873 40.6656 27.8582 40.3021C27.227 39.9375 27.0578 38.8551 26.4744 38.3662C25.8927 37.8783 24.7973 37.9011 24.327 37.3411C23.8598 36.7855 24.0718 35.7145 23.6873 35.0495C23.3102 34.3963 22.2737 34.0438 22.0228 33.3499C21.777 32.6724 22.344 31.7442 22.2093 30.9775C22.0848 30.2723 21.3542 29.6416 21.2379 28.9822C21.0937 28.1624 22.0634 27.4494 22.2057 26.6453C22.339 25.8892 21.7739 24.9552 22.023 24.2734C22.2734 23.5864 23.3104 23.2327 23.6906 22.576C24.0713 21.9172 23.8603 20.8421 24.3286 20.2838C24.7952 19.727 25.8901 19.7469 26.4744 19.2557C27.0542 18.7682 27.2213 17.6863 27.8567 17.3191C28.4801 16.9592 29.5073 17.3504 30.2249 17.0899C30.9302 16.8342 31.4567 15.8748 32.1885 15.7462C32.9202 15.617 33.7431 16.3383 34.4931 16.3374C35.2561 16.3364 36.0878 15.6177 36.7968 15.7427C37.5203 15.8703 38.0473 16.8302 38.7582 17.0895C39.4754 17.3509 40.4973 16.9583 41.1259 17.3217C41.7566 17.6863 41.9264 18.7687 42.5097 19.2576C43.0914 19.7451 44.1868 19.7228 44.6572 20.2827C45.1243 20.839 44.9124 21.9087 45.2968 22.5744C45.6735 23.227 46.7099 23.5801 46.9619 24.2739C47.2076 24.9515 46.6399 25.8797 46.7753 26.6463C46.8992 27.3511 47.63 27.9818 47.7462 28.6411ZM34.4924 19.5915C29.4008 19.5915 25.272 23.7196 25.272 28.8119C25.272 33.904 29.4001 38.0324 34.4924 38.0324C39.5845 38.0324 43.7128 33.9043 43.7128 28.8119C43.7124 23.7199 39.5841 19.5915 34.4924 19.5915ZM34.4924 21.1614C30.2674 21.1614 26.8424 24.5863 26.8424 28.8114C26.8424 33.0364 30.2674 36.4614 34.4924 36.4614C38.7174 36.4614 42.1424 33.0364 42.1424 28.8114C42.1424 24.5864 38.7175 21.1614 34.4924 21.1614ZM33.3847 29.5555L31.4998 27.6706C31.0111 27.182 30.219 27.182 29.7306 27.6706C29.2419 28.1592 29.2419 28.9514 29.7306 29.4398L32.503 32.2116C32.9916 32.7002 33.7838 32.7002 34.2722 32.2116C35.9431 30.5407 37.5951 28.8513 39.2581 27.1725C39.7429 26.6829 39.7415 25.8933 39.2528 25.4068C38.7638 24.9203 37.9716 24.922 37.4863 25.4125L33.3847 29.5555ZM37.2805 5.59803C37.7138 5.59803 38.0653 5.9496 38.0653 6.38287C38.0653 6.81614 37.7138 7.1677 37.2805 7.1677H23.9455C23.5123 7.1677 23.1607 6.81614 23.1607 6.38287C23.1607 5.9496 23.5122 5.59803 23.9455 5.59803H37.2805ZM13.9868 18.8735C14.42 18.8735 14.7716 19.225 14.7716 19.6583C14.7716 20.0916 14.42 20.4431 13.9868 20.4431L6.72551 20.4433C6.29226 20.4433 5.94068 20.0917 5.94068 19.6584C5.94068 19.2252 6.29224 18.8736 6.72551 18.8736L13.9868 18.8735ZM13.9868 22.85C14.42 22.85 14.7716 23.2016 14.7716 23.6349C14.7716 24.0681 14.42 24.4197 13.9868 24.4197L6.72551 24.4199C6.29226 24.4199 5.94068 24.0683 5.94068 23.635C5.94068 23.2018 6.29224 22.8502 6.72551 22.8502L13.9868 22.85ZM25.9668 17.1221H23.9454C23.5122 17.1221 23.1606 16.7706 23.1606 16.3373C23.1606 15.904 23.5122 15.5525 23.9454 15.5525H29.7663C29.9189 15.431 30.1195 15.2274 30.2246 15.1322C30.7215 14.6812 31.2393 14.3197 31.9157 14.2004C32.5923 14.0811 33.2026 14.2437 33.8236 14.4978C33.9803 14.5619 34.3157 14.7238 34.4945 14.7639C34.6706 14.7269 35.0096 14.565 35.1616 14.5025C35.7809 14.2478 36.3924 14.078 37.0688 14.1973C37.7469 14.3171 38.2637 14.6817 38.7599 15.1343C38.8833 15.2468 39.1458 15.5162 39.2985 15.6125C39.4756 15.6381 39.8501 15.6016 40.0147 15.5948C40.6856 15.5678 41.3146 15.6182 41.9115 15.9629C42.2604 16.1651 42.5282 16.4265 42.7526 16.7286L42.7528 3.79482C42.7528 2.50528 41.6976 1.45011 40.4081 1.45011H19.2581V16.0714C19.2581 16.5046 18.9065 16.8562 18.4733 16.8562H2.23909V26.1537C2.23909 27.4432 3.29426 28.4984 4.5838 28.4984H19.6746C19.7381 27.9963 19.945 27.5249 20.2215 27.076C20.3214 26.9136 20.583 26.5547 20.6574 26.3693C20.6527 26.1927 20.5511 25.8286 20.5163 25.6693C20.3726 25.0121 20.3122 24.3833 20.5485 23.7349C20.7845 23.0881 21.2339 22.6442 21.7656 22.2344C21.8975 22.1328 22.2078 21.9214 22.3286 21.7874C22.3843 21.6165 22.4129 21.2422 22.4349 21.0781C22.5244 20.4131 22.6833 19.8021 23.126 19.2744C23.5687 18.7462 24.1426 18.4837 24.7822 18.2796C24.939 18.2296 25.3036 18.1354 25.4615 18.0509C25.5725 17.9082 25.7266 17.5656 25.8042 17.4176C25.8565 17.3172 25.9107 17.2183 25.9673 17.1219L25.9668 17.1221ZM37.2805 10.5755C37.7138 10.5755 38.0653 10.927 38.0653 11.3603C38.0653 11.7935 37.7138 12.1451 37.2805 12.1451L23.9455 12.1453C23.5123 12.1453 23.1607 11.7937 23.1607 11.3604C23.1607 10.9272 23.5122 10.5756 23.9455 10.5756L37.2805 10.5755ZM14.6805 15.2867C14.0893 13.397 12.3398 12.1143 10.3555 12.1143C8.37731 12.1143 6.62164 13.3977 6.03051 15.2867H14.6805ZM10.3559 6.74003C9.30547 6.74003 8.45393 7.59162 8.45393 8.64203C8.45393 9.69249 9.30551 10.544 10.3559 10.544C11.4064 10.544 12.2579 9.69245 12.2579 8.64203C12.2579 7.59158 11.4063 6.74003 10.3559 6.74003Z" fill="#005F83"/>
</svg>
