<svg width="50" height="50" viewBox="0 0 50 50" fill="none" xmlns="http://www.w3.org/2000/svg">
<path fill-rule="evenodd" clip-rule="evenodd" d="M19.6317 10.1758C19.3205 10.2824 19.016 10.4081 18.7203 10.5521C18.4623 10.6836 18.1565 10.6817 17.9003 10.5469L17.4003 10.2917L16.704 9.93642H16.7038C16.5319 9.84723 16.336 9.81549 16.1446 9.84592C15.9533 9.87652 15.7769 9.9675 15.6413 10.1059L15.0876 10.657L14.5377 11.2105C14.3983 11.3461 14.3067 11.523 14.2761 11.7149C14.2457 11.9066 14.2779 12.1032 14.3681 12.2753L14.7229 12.9689L14.9787 13.4694H14.9786C15.1129 13.7259 15.1148 14.0314 14.9839 14.2896C14.8397 14.5853 14.7141 14.8897 14.6076 15.2011C14.5167 15.475 14.2994 15.6882 14.024 15.7738L13.4886 15.9458L12.7466 16.1879H12.7464C12.5614 16.2461 12.3999 16.362 12.2855 16.5189C12.1713 16.6757 12.1104 16.865 12.1119 17.059V18.6238C12.1104 18.8178 12.1713 19.0072 12.2855 19.1641C12.3998 19.321 12.5614 19.4371 12.7464 19.4954L13.4885 19.7374L14.0238 19.9094L14.024 19.9096C14.2994 19.9952 14.5166 20.2084 14.6076 20.4822C14.7141 20.7935 14.8397 21.098 14.9839 21.3938C15.1148 21.6519 15.1129 21.9574 14.9786 22.2138L14.7227 22.7138L14.3687 23.4112C14.2785 23.5828 14.2463 23.7789 14.2769 23.9703C14.3074 24.1617 14.3991 24.3381 14.5381 24.4732L15.0893 25.0269L15.6423 25.579C15.7774 25.7182 15.954 25.8098 16.1454 25.8402C16.337 25.8708 16.5333 25.8386 16.705 25.7484L17.4013 25.3936L17.9013 25.1384C18.1575 25.0035 18.4633 25.0014 18.7213 25.1327C19.0177 25.2764 19.322 25.4032 19.6329 25.5121C19.9063 25.6011 20.1199 25.8168 20.206 26.0911L20.3775 26.6264L20.6196 27.3684L20.6197 27.3686C20.6778 27.5538 20.7939 27.7154 20.9508 27.8297C21.1077 27.9439 21.2971 28.0048 21.4913 28.0032H23.0561C23.2501 28.0047 23.4396 27.9438 23.5965 27.8295C23.7534 27.7153 23.8694 27.5536 23.9277 27.3686L24.1692 26.6266L24.3413 26.0912V26.0911C24.4275 25.8168 24.6411 25.6011 24.9145 25.5121C25.2254 25.4032 25.5298 25.2764 25.8261 25.1327C26.0841 25.0014 26.3899 25.0035 26.6461 25.1384L27.1461 25.3936L27.8424 25.7484C28.014 25.8386 28.2103 25.8708 28.4017 25.8402C28.5931 25.8096 28.7695 25.718 28.9044 25.579L29.4586 25.0279L30.0098 24.4737C30.1488 24.3386 30.2402 24.1621 30.2708 23.9707C30.3013 23.7793 30.2692 23.5832 30.1792 23.4117L29.8244 22.7149L29.5685 22.2149L29.5687 22.2147C29.4344 21.9584 29.4325 21.6529 29.5635 21.3947C29.7077 21.099 29.8333 20.7945 29.9398 20.4833C30.0306 20.2093 30.248 19.9961 30.5234 19.9105L31.0588 19.7385L31.8008 19.4964V19.4963C31.9856 19.4377 32.1464 19.3213 32.2601 19.1644C32.3737 19.0077 32.4341 18.8184 32.4325 18.6247V17.0595C32.4341 16.8659 32.3737 16.6768 32.26 16.5201C32.1463 16.3633 31.9854 16.2471 31.8008 16.1885L31.0587 15.9465L30.5234 15.7745V15.7743C30.248 15.6887 30.0306 15.4755 29.9397 15.2017C29.8333 14.8904 29.7076 14.5859 29.5634 14.2901C29.4323 14.0329 29.4342 13.7281 29.5687 13.4727L29.8245 12.9696L30.1793 12.276L30.1792 12.2758C30.2693 12.1038 30.3016 11.9073 30.2711 11.7154C30.2405 11.5235 30.1489 11.3468 30.0097 11.2112L29.4586 10.657L28.9044 10.1054C28.769 9.96705 28.5925 9.8759 28.4013 9.84547C28.2102 9.81487 28.0143 9.84661 27.8424 9.9358L27.1461 10.2911L26.6461 10.5463V10.5465C26.3898 10.6812 26.0841 10.6832 25.8261 10.5517C25.5302 10.4076 25.2259 10.2818 24.9145 10.1754C24.6404 10.0846 24.427 9.86728 24.3412 9.59172L24.1692 9.05705L23.9277 8.31584C23.8691 8.13111 23.7529 7.97014 23.596 7.85638C23.4391 7.74263 23.2498 7.68239 23.0561 7.68435H21.4913C21.2974 7.68223 21.1081 7.74245 20.9512 7.85622C20.7943 7.96983 20.6781 8.13113 20.6197 8.31585L20.3777 9.05851L20.2061 9.59318H20.206C20.1199 9.86873 19.906 10.0857 19.6317 10.1758ZM26.4055 38.2379H17.3634C17.2019 38.2516 17.042 38.1971 16.9225 38.0875C16.8032 37.9778 16.7351 37.8232 16.7351 37.6611C16.7351 37.4988 16.8032 37.3442 16.9225 37.2345C17.042 37.125 17.2019 37.0705 17.3634 37.0841H26.4067C27.1994 37.0841 27.9318 36.6614 28.3279 35.9749C28.7243 35.2886 28.7243 34.443 28.3279 33.7565C27.9318 33.0701 27.1994 32.6473 26.4067 32.6473H18.5951C17.8093 32.658 17.0394 32.4261 16.3903 31.9832L15.8014 31.5932V31.5931C15.572 31.4367 15.3198 31.3162 15.054 31.2358C14.7869 31.1564 14.5094 31.1173 14.2308 31.1199H10.4214C10.112 31.1164 9.80386 31.1637 9.50974 31.2599C9.21807 31.3616 8.94478 31.5098 8.70032 31.6984L8.28349 32.0141C7.5644 32.5418 7.14644 33.3857 7.1624 34.2773V43.7852C7.16143 43.8349 7.17347 43.884 7.19707 43.9278C7.25192 44.0131 7.34567 44.0655 7.44707 44.0673C7.49606 44.0661 7.54375 44.0512 7.58444 44.0241L8.90019 43.2395L8.90035 43.2393C9.20635 43.053 9.5366 42.9099 9.88181 42.8142C10.229 42.7201 10.5871 42.6731 10.9466 42.6747H30.1445C30.4904 42.678 30.834 42.6179 31.1582 42.4973C31.4795 42.3708 31.7754 42.1877 32.0319 41.9568L41.4677 33.5697C41.9065 33.1787 42.1723 32.6297 42.2071 32.043C42.2418 31.4562 42.0426 30.8797 41.6529 30.4396C41.2613 30.0008 40.712 29.735 40.1249 29.7002C39.5379 29.6654 38.9609 29.8644 38.5203 30.2539L29.7219 38.0735C29.6135 38.1778 29.4693 38.2366 29.3188 38.2377L26.4055 38.2379ZM6.0134 43.6158V32.3492C6.01145 32.0669 5.89866 31.7968 5.69911 31.597C5.49973 31.3973 5.22986 31.2841 4.94765 31.2818H2.54174C2.25919 31.2836 1.98869 31.3965 1.78882 31.5964C1.58895 31.7961 1.47583 32.0666 1.47388 32.3491V43.6158C1.4755 43.8987 1.58862 44.1694 1.78849 44.3694C1.98836 44.5694 2.25904 44.6825 2.54174 44.6843H4.94766C5.23005 44.6824 5.50041 44.5693 5.70024 44.3696C5.89995 44.1698 6.01307 43.8993 6.01502 43.617L6.0134 43.6158ZM39.4738 7.08084C39.2536 7.1562 39.0381 7.24523 38.8287 7.34711C38.6472 7.44151 38.4312 7.44151 38.2497 7.34711L37.8949 7.1645L37.4028 6.91189C37.2811 6.84809 37.1419 6.82531 37.0062 6.84695C36.8704 6.86876 36.7454 6.9337 36.6496 7.03233L36.2601 7.42231L35.8675 7.81228V7.81245C35.7697 7.90864 35.7056 8.0338 35.6842 8.16938C35.6629 8.30496 35.6856 8.44379 35.7492 8.56554L35.9992 9.05758L36.1792 9.4124H36.179C36.2765 9.59257 36.2788 9.80921 36.1849 9.99136C36.0817 10.2003 35.9928 10.4161 35.9186 10.6372C35.8543 10.8309 35.6997 10.9813 35.5044 11.0403L35.1281 11.164L34.6017 11.3335C34.4704 11.3747 34.356 11.457 34.2751 11.5685C34.1942 11.6798 34.1514 11.8143 34.1528 11.952V13.0573V13.0571C34.1519 13.1943 34.195 13.3281 34.2759 13.4389C34.3566 13.5498 34.4709 13.6318 34.6017 13.673L35.1281 13.8424L35.5044 13.9656C35.7002 14.0258 35.8547 14.1772 35.9186 14.3719C35.9932 14.5918 36.0822 14.8065 36.1849 15.0145C36.2777 15.1969 36.2756 15.4131 36.179 15.5934L36.0002 15.9477L35.7502 16.4398C35.6867 16.5614 35.6641 16.7002 35.6854 16.8356C35.7065 16.9712 35.7708 17.0962 35.8687 17.1924L36.2612 17.5824L36.6507 17.9749V17.9751C36.7471 18.0728 36.8722 18.1371 37.0078 18.1582C37.1434 18.1795 37.2822 18.1569 37.4038 18.0934L37.8949 17.8425L38.2497 17.662C38.4303 17.5666 38.6462 17.5646 38.8286 17.6566C39.0374 17.7596 39.2531 17.8486 39.4738 17.923C39.6667 17.9888 39.8164 18.1426 39.877 18.3373L40.0007 18.7136L40.1701 19.2399V19.2398C40.2118 19.3708 40.2943 19.4847 40.4056 19.5651C40.5169 19.6455 40.6512 19.688 40.7886 19.6861H41.8939C42.0308 19.6875 42.1645 19.6449 42.2754 19.5646C42.3862 19.4842 42.4684 19.3703 42.5096 19.2398L42.679 18.7134L42.8027 18.3371V18.3372C42.8629 18.1421 43.0143 17.9885 43.2086 17.9256C43.4279 17.8488 43.6426 17.759 43.8512 17.6566C44.0338 17.5653 44.2492 17.5672 44.4302 17.662L44.7822 17.8425L45.2743 18.0925H45.2744C45.396 18.1559 45.5349 18.1787 45.6704 18.1574C45.806 18.1361 45.9312 18.0718 46.0275 17.974L46.4212 17.5793L46.8138 17.1893C46.9115 17.0929 46.9756 16.9679 46.9969 16.8324C47.0181 16.6969 46.9953 16.5581 46.9318 16.4367L46.6818 15.9447L46.5018 15.5926V15.5924C46.4058 15.4118 46.4038 15.1958 46.4964 15.0135C46.5975 14.804 46.6854 14.5885 46.7596 14.3681C46.8236 14.1736 46.9781 14.0221 47.1739 13.9619L47.5502 13.8387L48.0765 13.6693C48.2074 13.6281 48.3216 13.5462 48.4024 13.4354C48.4833 13.3245 48.5264 13.1906 48.5254 13.0535V11.9482C48.5269 11.8105 48.4841 11.6761 48.4032 11.5648C48.3223 11.4534 48.2079 11.3711 48.0765 11.3298L47.5502 11.1603L47.1739 11.0366C46.9785 10.9775 46.8239 10.8271 46.7596 10.6335C46.6862 10.4126 46.5983 10.1969 46.4964 9.98763C46.4037 9.8055 46.4056 9.58935 46.5018 9.40867L46.6818 9.05385L46.9318 8.56181C46.9953 8.44023 47.0181 8.30139 46.9969 8.16581C46.9758 8.03023 46.9115 7.90507 46.8138 7.80872L46.4212 7.42135L46.0313 7.03137C45.9356 6.93258 45.8104 6.86763 45.6747 6.84583C45.5389 6.82418 45.3998 6.84697 45.278 6.91077L44.786 7.16337L44.4339 7.34338C44.2523 7.43713 44.0365 7.43713 43.855 7.34338C43.6461 7.24198 43.4316 7.15312 43.2122 7.07711C43.0185 7.01363 42.8675 6.86048 42.8065 6.66614L42.6828 6.28674L42.5133 5.76037V5.7602C42.4713 5.62983 42.3886 5.51623 42.2773 5.43631C42.166 5.3564 42.0319 5.31424 41.8948 5.31603H40.7897C40.652 5.31473 40.5176 5.35754 40.4062 5.43843C40.2949 5.51932 40.2126 5.63374 40.1712 5.76509L40.0018 6.29146L39.8781 6.67086C39.8175 6.8647 39.6675 7.0177 39.4749 7.08183L39.4738 7.08084ZM41.3402 9.34401C40.5026 9.34401 39.6994 9.67669 39.1073 10.2688C38.515 10.8611 38.1823 11.6643 38.1823 12.5019C38.1823 13.3393 38.515 14.1425 39.1073 14.7348C39.6994 15.3271 40.5026 15.6598 41.3402 15.6598C42.1778 15.6598 42.981 15.3271 43.5731 14.7348C44.1654 14.1425 44.4981 13.3393 44.4981 12.5019C44.4981 11.6643 44.1654 10.8611 43.5731 10.2688C42.981 9.67667 42.1778 9.34401 41.3402 9.34401ZM22.2723 13.1861V13.186C21.0364 13.186 19.8512 13.6767 18.9774 14.5506C18.1035 15.4244 17.6126 16.6096 17.6128 17.8455C17.6129 19.0813 18.104 20.2665 18.9782 21.1401C19.8522 22.0138 21.0374 22.5043 22.2733 22.504C23.5091 22.5035 24.6942 22.0121 25.5675 21.1379C26.4411 20.2636 26.9313 19.0782 26.9307 17.8423C26.9313 16.607 26.4407 15.4219 25.5672 14.5484C24.6937 13.6748 23.5086 13.1845 22.2732 13.1849L22.2723 13.1861Z" fill="#005F83"/>
</svg>
