<svg width="50" height="50" viewBox="0 0 50 50" fill="none" xmlns="http://www.w3.org/2000/svg">
<path fill-rule="evenodd" clip-rule="evenodd" d="M21.3797 4.47708C19.896 2.99304 17.8064 2.28342 15.7255 2.55717C13.6449 2.83077 11.81 4.05667 10.7605 5.87392C9.71102 7.69112 9.56652 9.89312 10.3694 11.8322C11.1722 13.771 12.8312 15.2261 14.8582 15.7694C16.885 16.3129 19.0494 15.8825 20.7144 14.6052C22.3794 13.3279 23.3555 11.3487 23.3557 9.25021C23.3581 7.45983 22.6469 5.74225 21.3793 4.47771L21.3797 4.47708ZM17.7887 17.4563C17.6344 17.4502 17.4793 17.4473 17.3237 17.4473L15.8901 17.4471C15.7345 17.4471 15.5794 17.4501 15.4251 17.4561L16.1046 19.4561H17.1102L17.7892 17.4561L17.7887 17.4563ZM17.0387 20.9002H16.1761L14.8211 27.6065L18.3795 27.5375L17.038 20.9004L17.0387 20.9002ZM17.9122 28.9898L15.3502 29.0398L16.6311 30.9643L17.9121 28.9903L17.9122 28.9898ZM24.7622 20.0398H22.2267C22.0342 20.0392 21.8494 20.115 21.7131 20.2509C21.5768 20.3868 21.5002 20.5714 21.5002 20.7638V41.5042H9.94475V30.6688C9.94475 30.4099 9.80657 30.1704 9.58228 30.0411C9.358 29.9115 9.08162 29.9115 8.8572 30.0411C8.63292 30.1705 8.49473 30.4099 8.49473 30.6688V41.5042H3.86182V29.4755C3.87174 26.6244 4.88998 23.8688 6.73632 21.6963C8.58265 19.5236 11.138 18.0742 13.9505 17.6047L14.8414 20.2292L13.2504 28.1C13.2114 28.2948 13.2547 28.4973 13.3699 28.6591C13.3837 28.6876 13.3995 28.7151 13.4169 28.7416L16.0364 32.6767V32.6765C16.1708 32.8795 16.3984 33.001 16.6417 32.9999C16.885 32.9988 17.1114 32.8752 17.2439 32.6711L19.8634 28.6352V28.635C19.9721 28.4683 20.0068 28.2639 19.9594 28.0705L18.3744 20.2289L19.2654 17.6039C20.2363 17.7624 21.1838 18.0411 22.0858 18.4333C23.0442 18.8506 23.9441 19.3905 24.7634 20.0394L24.7622 20.0398ZM28.9747 24.4427H25.5576V27.8607H28.9755V24.4427H28.9747ZM24.8321 22.9927C24.6401 22.9927 24.456 23.069 24.3201 23.2048C24.1844 23.3405 24.1082 23.5246 24.1082 23.7167V28.5833C24.1082 28.7754 24.1844 28.9595 24.3201 29.0952C24.456 29.2311 24.6401 29.3073 24.8321 29.3073H29.7001C29.8921 29.3073 30.0762 29.2311 30.2119 29.0952C30.3477 28.9595 30.424 28.7754 30.424 28.5833V23.7183C30.424 23.5264 30.3477 23.3422 30.2119 23.2064C30.0762 23.0707 29.8921 22.9944 29.7001 22.9944L24.8321 22.9927ZM32.2501 25.1377C31.9911 25.1377 31.7517 24.9995 31.6221 24.7752C31.4927 24.5508 31.4927 24.2744 31.6221 24.0502C31.7517 23.8259 31.9911 23.6877 32.2501 23.6877H38.4201C38.6792 23.6877 38.9184 23.8259 39.048 24.0502C39.1775 24.2744 39.1775 24.5508 39.048 24.7752C38.9184 24.9995 38.6792 25.1377 38.4201 25.1377H32.2501ZM32.2501 29.309V29.3088C31.9911 29.3088 31.7517 29.1706 31.6221 28.9463C31.4927 28.722 31.4927 28.4457 31.6221 28.2214C31.7517 27.9971 31.9911 27.8589 32.2501 27.8589H38.4201C38.6792 27.8589 38.9184 27.9971 39.048 28.2214C39.1775 28.4457 39.1775 28.7221 39.048 28.9463C38.9184 29.1706 38.6792 29.3088 38.4201 29.3088L32.2501 29.309ZM24.8334 43.6477C24.5744 43.6477 24.335 43.5095 24.2055 43.2852C24.0761 43.061 24.0761 42.7846 24.2055 42.5603C24.335 42.3359 24.5745 42.1977 24.8334 42.1977H38.5638C38.8229 42.1977 39.0622 42.3359 39.1917 42.5603C39.3213 42.7846 39.3213 43.061 39.1917 43.2852C39.0622 43.5095 38.8229 43.6477 38.5638 43.6477H24.8334ZM41.6921 31.1773C40.5128 31.1773 39.3818 31.6457 38.5478 32.4795C37.7139 33.3135 37.2455 34.4445 37.2455 35.6239C37.2442 36.8002 37.7104 37.9289 38.5416 38.7615L38.5476 38.768C39.5975 39.8181 41.1026 40.2746 42.5593 39.9849C44.0158 39.6952 45.2317 38.6975 45.7998 37.3254C46.3682 35.9533 46.2141 34.3883 45.3889 33.1533C44.5637 31.9186 43.1766 31.1773 41.6916 31.1773L41.6921 31.1773ZM40.9682 29.7733L40.968 21.4879H22.9501V47.5004H40.968V41.4746C39.766 41.3278 38.6388 40.813 37.7406 40.0006H24.8336C24.5746 40.0006 24.3352 39.8624 24.2056 39.6382C24.0763 39.4139 24.0763 39.1375 24.2056 38.9131C24.3352 38.6888 24.5746 38.5506 24.8336 38.5506H36.5736C36.1854 37.8734 35.9365 37.1255 35.8415 36.3506H24.8336C24.5746 36.3506 24.3352 36.2124 24.2056 35.9881C24.0763 35.7638 24.0763 35.4874 24.2056 35.2632C24.3352 35.0389 24.5746 34.9007 24.8336 34.9007H35.8415C35.9365 34.1258 36.1854 33.3779 36.5736 32.7007H24.8336C24.5746 32.7007 24.3352 32.5625 24.2056 32.3382C24.0763 32.1138 24.0763 31.8374 24.2056 31.6131C24.3352 31.3888 24.5746 31.2507 24.8336 31.2507H37.7406C38.6384 30.4373 39.7657 29.9217 40.968 29.7741L40.9682 29.7733ZM42.2153 35.7271L42.2151 35.7272C42.0548 35.89 41.9806 36.1188 42.0151 36.3447C41.8116 36.2429 41.572 36.2429 41.3686 36.3447C41.4034 36.1187 41.3292 35.8895 41.1685 35.7267C41.3935 35.6893 41.5875 35.5482 41.6921 35.3457C41.7966 35.5484 41.9906 35.6898 42.2155 35.7272L42.2153 35.7271ZM42.3798 32.8072L42.8593 34.2927L44.4223 34.2897H44.4222C44.6266 34.2899 44.8214 34.3768 44.9579 34.5288C45.0947 34.6809 45.1604 34.8838 45.1389 35.0871C45.1175 35.2905 45.0105 35.4751 44.8452 35.5952L43.5802 36.5107L44.0657 37.9953L44.0655 37.9951C44.1306 38.196 44.1046 38.4152 43.9942 38.5952C43.8841 38.7754 43.7006 38.8981 43.4921 38.9316C43.2838 38.965 43.0711 38.9058 42.9101 38.7692L41.691 37.8802L40.4296 38.8001C40.2644 38.9204 40.0559 38.9648 39.8559 38.9225C39.656 38.88 39.4835 38.7549 39.3811 38.578C39.2789 38.401 39.2566 38.189 39.3196 37.9946L39.8051 36.5101L38.5401 35.5945V35.5947C38.3687 35.4708 38.2601 35.2783 38.2429 35.0677C38.2256 34.8571 38.3015 34.6494 38.4504 34.4993C38.5992 34.3494 38.8064 34.2719 39.017 34.2876L40.5269 34.2905L41.0064 32.805L41.0066 32.8052C41.0692 32.6097 41.2121 32.4502 41.3996 32.3665C41.587 32.2827 41.8012 32.2827 41.9885 32.3665C42.176 32.4502 42.3189 32.6097 42.3816 32.8052L42.3798 32.8072Z" fill="#005F83"/>
</svg>
