<svg width="43" height="42" viewBox="0 0 43 42" fill="none" xmlns="http://www.w3.org/2000/svg">
<path d="M17.5281 42H19.989C19.989 41.4045 19.989 37.6775 19.989 37.0781H17.5281V42Z" fill="white"/>
<path d="M12.6062 42H15.0671C15.0671 41.4045 15.0671 37.6775 15.0671 37.0781H12.6062V42Z" fill="white"/>
<path d="M5.22339 39.5391H0.219482V42H10.1453C10.1453 41.0971 10.1453 35.4099 10.1453 34.6172H22.45V42H27.3718C27.3718 40.8598 27.3718 16.2962 27.3718 14.9297H5.22339V39.5391ZM10.1453 22.3125H22.45V24.7734H10.1453V22.3125ZM10.1453 27.2344H22.45V29.6953H10.1453V27.2344Z" fill="white"/>
<path d="M37.2156 39.5391V0H15.0671V12.4688H29.8328V42H42.2195V39.5391H37.2156ZM34.7546 24.7734V27.2344H32.2937V24.7734H34.7546ZM32.2937 22.3125V19.8516H34.7546V22.3125H32.2937ZM34.7546 29.6953V32.1562H32.2937V29.6953H34.7546ZM34.7546 34.6172V37.0781H32.2937V34.6172H34.7546ZM34.7546 17.3906H32.2937V14.9297H34.7546V17.3906ZM19.989 2.625H32.2937V5.08594H19.989V2.625ZM19.989 10.0078V7.54688H32.2937V10.0078H19.989Z" fill="white"/>
</svg>
