<svg id="Layer_1" data-name="Layer 1" xmlns="http://www.w3.org/2000/svg" xmlns:xlink="http://www.w3.org/1999/xlink" viewBox="0 0 358.39 99.66"><defs><style>.cls-1{fill:#fff;}.cls-2{fill:url(#New_Gradient_Swatch_7);}</style><linearGradient id="New_Gradient_Swatch_7" x1="68.6" y1="49.83" x2="179.25" y2="49.83" gradientUnits="userSpaceOnUse"><stop offset="0" stop-color="#00bfff"/><stop offset="0.1" stop-color="#03c0f6"/><stop offset="0.26" stop-color="#0bc4dd"/><stop offset="0.47" stop-color="#19c9b5"/><stop offset="0.71" stop-color="#2cd17e"/><stop offset="0.98" stop-color="#44da37"/><stop offset="1" stop-color="#45db33"/></linearGradient></defs><polygon class="cls-1" points="0 1.92 0 25.19 28.49 25.19 28.49 97.74 54.81 97.74 54.81 25.19 83.29 25.19 83.29 1.92 0 1.92"/><path class="cls-1" d="M457.56,262.77c-13.16-3-16.41-4.93-16.41-9.31v-.27c0-3.42,3.12-6.16,9.49-6.16,8.41,0,17.91,3.29,26.59,9.44l13.16-18.75C480.08,229.37,467.46,225,451.32,225c-22.79,0-36.76,12.87-36.76,30.66v.28c0,19.71,15.6,25.46,35.81,30.11,12.89,3,16,5.21,16,9.18v.27c0,4.11-3.8,6.57-10.86,6.57-11,0-21.43-4-30.79-11.5l-14.65,17.66c11.67,10.54,27.67,15.88,44.5,15.88,23.06,0,38.39-11.64,38.39-31.21v-.27c0-17.94-13.57-25.06-35.41-29.85" transform="translate(-232.7 -224.71)"/><path class="cls-1" d="M571.28,288.51c-5.69,7-11.53,11.63-21.43,11.63-13.29,0-22.65-11.22-22.65-25.6v-.27c0-14,9.36-25.33,22.65-25.33,9.09,0,15.33,4.39,20.76,11.23l19.8-15.47c-8.41-11.77-20.89-20-40.29-20-28.76,0-50.06,21.91-50.06,49.83v.28c0,28.61,21.85,49.55,49,49.55,21,0,33.1-9.17,42.05-21.62Z" transform="translate(-232.7 -224.71)"/><polygon class="cls-2" points="123.93 1.92 68.6 97.74 97.67 97.74 123.93 52.27 150.18 97.74 179.25 97.74 123.93 1.92"/></svg>